<mxfile host="app.diagrams.net" modified="2023-05-20T15:52:47.104Z" agent="Mozilla/5.0 (X11; Linux x86_64) AppleWebKit/537.36 (KHTML, like Gecko) Chrome/113.0.0.0 Safari/537.36" etag="2VX9BMInGTpcr_M_AR-P" version="21.3.2" type="github">
  <diagram name="Page-1" id="ZSuanhP7EGacNlxVEqk-">
    <mxGraphModel dx="1195" dy="696" grid="1" gridSize="10" guides="1" tooltips="1" connect="1" arrows="1" fold="1" page="1" pageScale="1" pageWidth="827" pageHeight="1169" math="0" shadow="0">
      <root>
        <mxCell id="0" />
        <mxCell id="1" parent="0" />
        <mxCell id="kz1hOUOnRDqdGuqnlTBT-12" style="edgeStyle=orthogonalEdgeStyle;rounded=0;orthogonalLoop=1;jettySize=auto;html=1;entryX=0.25;entryY=0;entryDx=0;entryDy=0;" edge="1" parent="1" source="kz1hOUOnRDqdGuqnlTBT-1" target="kz1hOUOnRDqdGuqnlTBT-11">
          <mxGeometry relative="1" as="geometry">
            <Array as="points">
              <mxPoint x="380" y="530" />
              <mxPoint x="380" y="530" />
            </Array>
          </mxGeometry>
        </mxCell>
        <mxCell id="kz1hOUOnRDqdGuqnlTBT-13" value="Task Details" style="edgeLabel;html=1;align=center;verticalAlign=middle;resizable=0;points=[];" vertex="1" connectable="0" parent="kz1hOUOnRDqdGuqnlTBT-12">
          <mxGeometry x="-0.2286" y="2" relative="1" as="geometry">
            <mxPoint as="offset" />
          </mxGeometry>
        </mxCell>
        <mxCell id="kz1hOUOnRDqdGuqnlTBT-1" value="Task Service" style="ellipse;whiteSpace=wrap;html=1;aspect=fixed;" vertex="1" parent="1">
          <mxGeometry x="370" y="390" width="80" height="80" as="geometry" />
        </mxCell>
        <mxCell id="kz1hOUOnRDqdGuqnlTBT-3" style="edgeStyle=orthogonalEdgeStyle;rounded=0;orthogonalLoop=1;jettySize=auto;html=1;entryX=1;entryY=0.5;entryDx=0;entryDy=0;" edge="1" parent="1" source="kz1hOUOnRDqdGuqnlTBT-2" target="kz1hOUOnRDqdGuqnlTBT-1">
          <mxGeometry relative="1" as="geometry" />
        </mxCell>
        <mxCell id="kz1hOUOnRDqdGuqnlTBT-4" value="Create Task" style="edgeLabel;html=1;align=center;verticalAlign=middle;resizable=0;points=[];" vertex="1" connectable="0" parent="kz1hOUOnRDqdGuqnlTBT-3">
          <mxGeometry x="-0.031" relative="1" as="geometry">
            <mxPoint as="offset" />
          </mxGeometry>
        </mxCell>
        <mxCell id="kz1hOUOnRDqdGuqnlTBT-5" style="edgeStyle=orthogonalEdgeStyle;rounded=0;orthogonalLoop=1;jettySize=auto;html=1;entryX=1;entryY=0.5;entryDx=0;entryDy=0;exitX=0.25;exitY=1;exitDx=0;exitDy=0;" edge="1" parent="1" source="kz1hOUOnRDqdGuqnlTBT-2" target="kz1hOUOnRDqdGuqnlTBT-1">
          <mxGeometry relative="1" as="geometry">
            <Array as="points">
              <mxPoint x="570" y="430" />
            </Array>
          </mxGeometry>
        </mxCell>
        <mxCell id="kz1hOUOnRDqdGuqnlTBT-6" value="Update Task" style="edgeLabel;html=1;align=center;verticalAlign=middle;resizable=0;points=[];" vertex="1" connectable="0" parent="kz1hOUOnRDqdGuqnlTBT-5">
          <mxGeometry x="-0.6868" relative="1" as="geometry">
            <mxPoint y="32" as="offset" />
          </mxGeometry>
        </mxCell>
        <mxCell id="kz1hOUOnRDqdGuqnlTBT-7" style="edgeStyle=orthogonalEdgeStyle;rounded=0;orthogonalLoop=1;jettySize=auto;html=1;entryX=1;entryY=0.5;entryDx=0;entryDy=0;" edge="1" parent="1" source="kz1hOUOnRDqdGuqnlTBT-2" target="kz1hOUOnRDqdGuqnlTBT-1">
          <mxGeometry relative="1" as="geometry">
            <Array as="points">
              <mxPoint x="630" y="430" />
            </Array>
          </mxGeometry>
        </mxCell>
        <mxCell id="kz1hOUOnRDqdGuqnlTBT-8" value="Delete Task" style="edgeLabel;html=1;align=center;verticalAlign=middle;resizable=0;points=[];" vertex="1" connectable="0" parent="kz1hOUOnRDqdGuqnlTBT-7">
          <mxGeometry x="-0.5685" y="3" relative="1" as="geometry">
            <mxPoint as="offset" />
          </mxGeometry>
        </mxCell>
        <mxCell id="kz1hOUOnRDqdGuqnlTBT-9" style="edgeStyle=orthogonalEdgeStyle;rounded=0;orthogonalLoop=1;jettySize=auto;html=1;entryX=1;entryY=0.5;entryDx=0;entryDy=0;" edge="1" parent="1" source="kz1hOUOnRDqdGuqnlTBT-2" target="kz1hOUOnRDqdGuqnlTBT-1">
          <mxGeometry relative="1" as="geometry">
            <Array as="points">
              <mxPoint x="710" y="210" />
              <mxPoint x="710" y="430" />
            </Array>
          </mxGeometry>
        </mxCell>
        <mxCell id="kz1hOUOnRDqdGuqnlTBT-10" value="Add Entity to Task" style="edgeLabel;html=1;align=center;verticalAlign=middle;resizable=0;points=[];" vertex="1" connectable="0" parent="kz1hOUOnRDqdGuqnlTBT-9">
          <mxGeometry x="-0.4158" y="-2" relative="1" as="geometry">
            <mxPoint as="offset" />
          </mxGeometry>
        </mxCell>
        <mxCell id="kz1hOUOnRDqdGuqnlTBT-2" value="Owner/Editor" style="rounded=0;whiteSpace=wrap;html=1;" vertex="1" parent="1">
          <mxGeometry x="520" y="180" width="120" height="60" as="geometry" />
        </mxCell>
        <mxCell id="kz1hOUOnRDqdGuqnlTBT-14" style="edgeStyle=orthogonalEdgeStyle;rounded=0;orthogonalLoop=1;jettySize=auto;html=1;exitX=0.75;exitY=0;exitDx=0;exitDy=0;entryX=1;entryY=1;entryDx=0;entryDy=0;" edge="1" parent="1" source="kz1hOUOnRDqdGuqnlTBT-11" target="kz1hOUOnRDqdGuqnlTBT-1">
          <mxGeometry relative="1" as="geometry" />
        </mxCell>
        <mxCell id="kz1hOUOnRDqdGuqnlTBT-15" value="Update Task" style="edgeLabel;html=1;align=center;verticalAlign=middle;resizable=0;points=[];" vertex="1" connectable="0" parent="kz1hOUOnRDqdGuqnlTBT-14">
          <mxGeometry x="0.2155" y="2" relative="1" as="geometry">
            <mxPoint y="50" as="offset" />
          </mxGeometry>
        </mxCell>
        <mxCell id="kz1hOUOnRDqdGuqnlTBT-11" value="User" style="rounded=0;whiteSpace=wrap;html=1;" vertex="1" parent="1">
          <mxGeometry x="350" y="690" width="120" height="60" as="geometry" />
        </mxCell>
      </root>
    </mxGraphModel>
  </diagram>
</mxfile>
